<?xml version="1.0" encoding="iso-8859-1"?>
<!-- Generator: Adobe Illustrator 19.0.0, SVG Export Plug-In . SVG Version: 6.00 Build 0)  -->
<svg version="1.1" id="Layer_1" xmlns="http://www.w3.org/2000/svg" xmlns:xlink="http://www.w3.org/1999/xlink" x="0px" y="0px"
	 viewBox="0 0 512 512" style="enable-background:new 0 0 512 512;" xml:space="preserve">
<g>
	<path style="fill:#FF9212;" d="M321.614,354.685l-71.064,53.259l0.436,0.851c8.013,11.852,21.566,19.652,36.954,19.652
		c24.61,0,44.564-19.954,44.564-44.575C332.503,372.714,328.396,362.496,321.614,354.685z"/>
	<path style="fill:#FF9212;" d="M215.555,83.554c-36.428,0-67.248,23.927-77.645,56.908l147.837,38.006v-54.736
		C271.601,99.692,245.458,83.554,215.555,83.554z"/>
	<path style="fill:#FF9212;" d="M512,155.645c0-4.635-3.757-8.393-8.393-8.393c-27.141,0-41.526,27.456-56.756,56.523
		c-13.801,26.341-31.654,58.361-60.705,70.875H375.07v14.721h11.075c29.05,12.514,46.904,44.535,60.705,70.875
		c15.229,29.067,29.615,56.523,56.756,56.523c4.637,0,8.393-3.758,8.393-8.393S512,160.28,512,155.645z"/>
</g>
<path style="fill:#FF6A2E;" d="M137.91,140.461c10.979-2.652,22.438-4.051,34.234-4.051c44.519,0,81.394,17.761,113.602,42.057
	c42.046,31.716,76.134,74.556,108.913,103.542c-22.942,20.301-46.533,47.384-73.045,72.676
	c-21.387,20.413-44.675,39.673-71.064,53.259c-23.423,12.064-49.275,19.663-78.406,19.663c-65.01,0-120.06-42.616-138.76-101.426
	h-6.838c-12.198,0-22.08-9.882-22.08-22.08c0-6.099,2.473-11.617,6.469-15.623c3.995-3.995,9.513-6.469,15.612-6.469h-4.454
	C9.893,282.008,0,272.115,0,259.928c0-12.198,9.893-22.092,22.092-22.092h11.292C48.693,189.692,88.355,152.403,137.91,140.461z"/>
<path style="fill:#FFFFFF;" d="M126.831,203.244c19.103,0,34.592,15.489,34.592,34.592s-15.489,34.581-34.592,34.581
	S92.25,256.94,92.25,237.837S107.727,203.244,126.831,203.244z"/>
<g>
</g>
<g>
</g>
<g>
</g>
<g>
</g>
<g>
</g>
<g>
</g>
<g>
</g>
<g>
</g>
<g>
</g>
<g>
</g>
<g>
</g>
<g>
</g>
<g>
</g>
<g>
</g>
<g>
</g>
</svg>
