<?xml version="1.0" encoding="iso-8859-1"?>
<!-- Generator: Adobe Illustrator 19.0.0, SVG Export Plug-In . SVG Version: 6.00 Build 0)  -->
<svg version="1.1" id="Capa_1" xmlns="http://www.w3.org/2000/svg" xmlns:xlink="http://www.w3.org/1999/xlink" x="0px" y="0px"
	 viewBox="0 0 512.001 512.001" style="enable-background:new 0 0 512.001 512.001;" xml:space="preserve">
<path style="fill:#FFF5F5;" d="M449.195,214.964H62.809c-7.174,0-13.378,4.995-14.909,12.003L0.364,444.508
	c-2.079,9.517,5.168,18.519,14.909,18.519h481.456c9.742,0,16.989-9.003,14.909-18.519l-47.535-217.541
	C462.573,219.959,456.367,214.964,449.195,214.964z"/>
<path style="fill:#7ACBA7;" d="M482.156,309.594h-50.538c-17.243-21.021-52.421-38.097-97.152-47.43
	c-23.867-4.991-50.444-7.775-78.465-7.775c-28.115,0-54.786,2.793-78.705,7.817c-13.383,2.804-25.897,6.298-37.344,10.39
	l-57.621-57.632h-19.52c-7.174,0-13.379,4.996-14.91,12.005l-7.8,35.709l43.391,43.381c-9.48,10.129-14.722,21.251-14.722,32.938
	c0,42.941,70.795,78.412,162.506,83.874l-0.105,40.158h54.587l0.105-40.493c68.074-4.928,123.896-26.452,146.518-55.09l0.126-0.209
	h62.247L482.156,309.594z M256.001,389.001c-61.106,0-110.649-22.392-110.649-50.005c0-19.995,25.97-37.25,63.492-45.243
	c14.303-3.055,30.291-4.761,47.158-4.761c16.772,0,32.676,1.685,46.928,4.708c37.647,7.984,63.722,25.269,63.722,45.295
	C366.652,366.609,317.108,389.001,256.001,389.001z"/>
<g>
	<path style="fill:#F7CF69;" d="M482.156,309.594h-50.538c-17.243-21.021-52.421-38.097-97.152-47.43l47.18-47.201h67.548
		c7.174,0,13.378,4.995,14.909,12.004L482.156,309.594z"/>
	<path style="fill:#F7CF69;" d="M177.297,262.207c-13.383,2.804-25.897,6.298-37.344,10.39l-57.621-57.632h47.724L177.297,262.207z"
		/>
</g>
<path style="fill:#C23D40;" d="M381.646,214.964l-47.18,47.201c-23.867-4.991-50.444-7.775-78.465-7.775
	c-28.115,0-54.786,2.793-78.705,7.817l-47.242-47.243L381.646,214.964L381.646,214.964z"/>
<path style="fill:#F7CF69;" d="M231.277,422.871l-0.105,40.158h-162.4l9.553-48.32H6.912l-0.042-0.011l33.231-152.021l43.391,43.381
	c-9.48,10.129-14.722,21.251-14.722,32.938C68.771,381.938,139.566,417.408,231.277,422.871z"/>
<path style="fill:#168C80;" d="M78.324,414.709l-9.553,48.32H15.268c-9.741,0-16.988-9.002-14.91-18.518l6.512-29.812l0.042,0.011
	H78.324z"/>
<path style="fill:#F7CF69;" d="M447.732,456.949c0,2.051,0.094,4.081,0.272,6.079H285.76l0.105-40.493
	c68.074-4.928,123.896-26.452,146.518-55.09l0.126-0.209h62.247l5.158,23.606C469.997,397.958,447.732,424.849,447.732,456.949z"/>
<path style="fill:#168C80;" d="M496.733,463.029h-48.73c-0.178-1.998-0.272-4.028-0.272-6.079c0-32.101,22.266-58.992,52.181-66.107
	l11.731,53.666C513.723,454.026,506.475,463.029,496.733,463.029z"/>
<path style="fill:#B5D3E3;" d="M366.652,338.996c0,27.613-49.544,50.005-110.649,50.005s-110.649-22.392-110.649-50.005
	c0-19.995,25.97-37.25,63.492-45.243c14.303-3.055,30.291-4.761,47.158-4.761c16.772,0,32.676,1.685,46.928,4.708
	C340.577,301.685,366.652,318.97,366.652,338.996z"/>
<path style="fill:#57BF93;" d="M62.811,214.964c-7.174,0-13.379,4.996-14.91,12.005l-7.8,35.709l25.76,25.753l16.053-73.466H62.811z
	"/>
<polygon style="fill:#FFB64C;" points="6.912,414.709 38.268,414.709 65.861,288.431 40.101,262.677 27.288,321.294 6.878,414.701 
	"/>
<path style="fill:#13776B;" d="M6.912,414.709L6.878,414.7l-6.513,29.808c-2.079,9.517,5.168,18.519,14.909,18.519h12.436
	l10.558-48.318H6.912V414.709z"/>
<path style="fill:#EC5569;" d="M402.721,73.837L402.721,73.837c-33.153-33.153-86.904-33.153-120.058,0l-18.727,18.727
	c-4.465,4.465-11.705,4.465-16.171,0l-18.427-18.427c-33.152-33.153-86.904-33.153-120.057,0l0,0
	c-33.152,33.152-33.152,86.904,0,120.057L247.777,332.69c4.465,4.465,11.706,4.465,16.171,0L402.72,193.894
	C435.875,160.741,435.875,106.99,402.721,73.837z"/>
<path style="fill:#E63950;" d="M140.674,194.194c-33.152-33.152-33.152-86.904,0-120.057l0,0
	c12.566-12.565,28.092-20.358,44.332-23.398c-26.608-4.981-55.137,2.811-75.725,23.398l0,0c-33.152,33.153-33.152,86.904,0,120.057
	L247.778,332.69c4.465,4.465,11.706,4.465,16.171,0l7.61-7.612L140.674,194.194z"/>
<circle style="fill:#B5D3E3;" cx="255.999" cy="179.944" r="44.433"/>
<g>
</g>
<g>
</g>
<g>
</g>
<g>
</g>
<g>
</g>
<g>
</g>
<g>
</g>
<g>
</g>
<g>
</g>
<g>
</g>
<g>
</g>
<g>
</g>
<g>
</g>
<g>
</g>
<g>
</g>
</svg>
