<?xml version="1.0" encoding="iso-8859-1"?>
<!-- Generator: Adobe Illustrator 19.0.0, SVG Export Plug-In . SVG Version: 6.00 Build 0)  -->
<svg version="1.1" id="Layer_1" xmlns="http://www.w3.org/2000/svg" xmlns:xlink="http://www.w3.org/1999/xlink" x="0px" y="0px"
	 viewBox="0 0 512 512" style="enable-background:new 0 0 512 512;" xml:space="preserve">
<path style="fill:#C7A395;" d="M398.601,217.239V50.524c0-4.714-3.82-8.533-8.533-8.533c-4.714,0-8.533,3.82-8.533,8.533v166.715
	c-17.799,3.916-31.161,19.803-31.161,38.761c0,21.887,17.806,39.695,39.695,39.695c21.886,0,39.694-17.806,39.694-39.695
	C429.761,237.042,416.399,221.156,398.601,217.239z M390.068,278.628c-12.477,0-22.628-10.151-22.628-22.628
	s10.151-22.628,22.628-22.628c12.477,0,22.627,10.151,22.627,22.628S402.545,278.628,390.068,278.628z"/>
<polygon style="fill:#CFC8AB;" points="198.235,50.529 198.235,208.647 209.613,217.18 198.235,225.714 198.235,286.287 
	209.613,294.82 198.235,303.353 198.235,363.925 209.613,372.458 198.235,380.992 198.235,461.471 313.765,461.471 313.765,380.992 
	302.387,372.458 313.765,363.925 313.765,225.714 302.387,217.18 313.765,208.647 313.765,148.075 302.387,139.542 313.765,131.008 
	313.765,50.529 "/>
<g>
	<path style="fill:#B4A990;" d="M246.914,372.458c0,4.714,3.821,8.533,8.533,8.533h58.318v-17.067h-58.318
		C250.734,363.925,246.914,367.746,246.914,372.458z"/>
	<path style="fill:#B4A990;" d="M221.314,363.925h-23.079v17.067h23.079c4.713,0,8.533-3.819,8.533-8.533
		C229.847,367.745,226.026,363.925,221.314,363.925z"/>
	<path style="fill:#B4A990;" d="M287.679,294.82c0-4.714-3.82-8.533-8.533-8.533h-80.911v17.067h80.911
		C283.858,303.353,287.679,299.534,287.679,294.82z"/>
	<path style="fill:#B4A990;" d="M282.153,217.18c0,4.714,3.82,8.533,8.533,8.533h23.079v-17.067h-23.079
		C285.974,208.647,282.153,212.466,282.153,217.18z"/>
	<path style="fill:#B4A990;" d="M265.086,217.18c0-4.714-3.821-8.533-8.533-8.533h-58.318v17.067h58.318
		C261.266,225.714,265.086,221.893,265.086,217.18z"/>
	<path style="fill:#B4A990;" d="M232.854,131.008c-4.713,0-8.533,3.82-8.533,8.533c0,4.714,3.821,8.533,8.533,8.533h80.911v-17.067
		H232.854z"/>
</g>
<g>
	<path style="fill:#AE7A66;" d="M473.714,450.094H38.286c-10.194,0-18.466,8.272-18.466,18.466v24.974
		c0,10.194,8.272,18.466,18.466,18.466h435.428c10.194,0,18.466-8.272,18.466-18.466V468.56
		C492.18,458.365,483.908,450.094,473.714,450.094z"/>
	<path style="fill:#AE7A66;" d="M450.628,0H61.372C51.177,0,42.906,8.272,42.906,18.466V43.44c0,10.194,8.272,18.466,18.466,18.466
		h389.257c10.194,0,18.466-8.272,18.466-18.466V18.466C469.094,8.272,460.823,0,450.628,0z"/>
</g>
<g>
</g>
<g>
</g>
<g>
</g>
<g>
</g>
<g>
</g>
<g>
</g>
<g>
</g>
<g>
</g>
<g>
</g>
<g>
</g>
<g>
</g>
<g>
</g>
<g>
</g>
<g>
</g>
<g>
</g>
</svg>
